<mxfile host="app.diagrams.net" modified="2020-10-28T06:57:41.873Z" agent="5.0 (X11)" etag="BEPeU-YW0BuJr_AMxrqz" version="13.7.3" type="github">
  <diagram id="7MFqqRCHg5uXiT1dcqxL" name="Page-1">
    <mxGraphModel dx="1422" dy="759" grid="1" gridSize="10" guides="1" tooltips="1" connect="1" arrows="1" fold="1" page="1" pageScale="1" pageWidth="827" pageHeight="1169" math="0" shadow="0">
      <root>
        <mxCell id="0" />
        <mxCell id="1" parent="0" />
        <mxCell id="gCLjXgu428mkZAsLbG3j-2" value="" style="endArrow=classic;html=1;" edge="1" parent="1">
          <mxGeometry width="50" height="50" relative="1" as="geometry">
            <mxPoint x="70" y="300" as="sourcePoint" />
            <mxPoint x="180" y="300" as="targetPoint" />
          </mxGeometry>
        </mxCell>
        <mxCell id="gCLjXgu428mkZAsLbG3j-3" value="Open Merge Request" style="text;html=1;strokeColor=none;fillColor=none;align=center;verticalAlign=middle;whiteSpace=wrap;rounded=0;" vertex="1" parent="1">
          <mxGeometry x="80" y="270" width="80" height="20" as="geometry" />
        </mxCell>
        <mxCell id="gCLjXgu428mkZAsLbG3j-6" value="" style="endArrow=classic;html=1;" edge="1" parent="1">
          <mxGeometry width="50" height="50" relative="1" as="geometry">
            <mxPoint x="280" y="320" as="sourcePoint" />
            <mxPoint x="451" y="320" as="targetPoint" />
            <Array as="points" />
          </mxGeometry>
        </mxCell>
        <mxCell id="gCLjXgu428mkZAsLbG3j-11" value="Manual Merge" style="rounded=1;whiteSpace=wrap;html=1;fillColor=#ffe6cc;strokeColor=#d79b00;" vertex="1" parent="1">
          <mxGeometry x="700" y="290" width="120" height="60" as="geometry" />
        </mxCell>
        <mxCell id="gCLjXgu428mkZAsLbG3j-12" value="" style="endArrow=classic;html=1;entryX=1;entryY=0.36;entryDx=0;entryDy=0;entryPerimeter=0;exitX=0.5;exitY=1;exitDx=0;exitDy=0;" edge="1" parent="1" source="gCLjXgu428mkZAsLbG3j-11" target="gCLjXgu428mkZAsLbG3j-30">
          <mxGeometry width="50" height="50" relative="1" as="geometry">
            <mxPoint x="710" y="340" as="sourcePoint" />
            <mxPoint x="590" y="510" as="targetPoint" />
            <Array as="points">
              <mxPoint x="760" y="512" />
            </Array>
          </mxGeometry>
        </mxCell>
        <mxCell id="gCLjXgu428mkZAsLbG3j-14" value="" style="rounded=0;whiteSpace=wrap;html=1;fillColor=#fff2cc;strokeColor=#d6b656;" vertex="1" parent="1">
          <mxGeometry x="376" y="20" width="140" height="200" as="geometry" />
        </mxCell>
        <mxCell id="gCLjXgu428mkZAsLbG3j-15" value="&lt;div&gt;pylint&lt;/div&gt;&lt;div&gt;pytest&lt;br&gt;&lt;/div&gt;" style="rounded=0;whiteSpace=wrap;html=1;fillColor=#dae8fc;strokeColor=#6c8ebf;" vertex="1" parent="1">
          <mxGeometry x="399.75" y="50" width="92.5" height="50" as="geometry" />
        </mxCell>
        <mxCell id="gCLjXgu428mkZAsLbG3j-16" value="&lt;div&gt;tslint&lt;br&gt;&lt;/div&gt;&lt;div&gt;jest&lt;br&gt;&lt;/div&gt;" style="rounded=0;whiteSpace=wrap;html=1;fillColor=#dae8fc;strokeColor=#6c8ebf;" vertex="1" parent="1">
          <mxGeometry x="399.75" y="130" width="92.5" height="50" as="geometry" />
        </mxCell>
        <mxCell id="gCLjXgu428mkZAsLbG3j-17" value="&lt;b&gt;Test&lt;/b&gt;" style="text;html=1;strokeColor=none;fillColor=none;align=center;verticalAlign=middle;whiteSpace=wrap;rounded=0;" vertex="1" parent="1">
          <mxGeometry x="376" y="20" width="40" height="20" as="geometry" />
        </mxCell>
        <mxCell id="gCLjXgu428mkZAsLbG3j-18" value="" style="rounded=0;whiteSpace=wrap;html=1;fillColor=#e1d5e7;strokeColor=#9673a6;" vertex="1" parent="1">
          <mxGeometry x="560" y="20" width="140" height="200" as="geometry" />
        </mxCell>
        <mxCell id="gCLjXgu428mkZAsLbG3j-19" value="&lt;b&gt;Build&lt;/b&gt;" style="text;html=1;strokeColor=none;fillColor=none;align=center;verticalAlign=middle;whiteSpace=wrap;rounded=0;" vertex="1" parent="1">
          <mxGeometry x="560" y="20" width="40" height="20" as="geometry" />
        </mxCell>
        <mxCell id="gCLjXgu428mkZAsLbG3j-20" value="&lt;div&gt;Docker build&lt;br&gt;&lt;/div&gt;" style="rounded=0;whiteSpace=wrap;html=1;fillColor=#dae8fc;strokeColor=#6c8ebf;" vertex="1" parent="1">
          <mxGeometry x="583.75" y="50" width="92.5" height="50" as="geometry" />
        </mxCell>
        <mxCell id="gCLjXgu428mkZAsLbG3j-24" value="&lt;div&gt;Manual Review &amp;amp; &lt;br&gt;&lt;/div&gt;&lt;div&gt;Comment &quot;LGTM!&quot;&lt;br&gt;&lt;/div&gt;" style="rounded=0;whiteSpace=wrap;html=1;fillColor=#ffe6cc;strokeColor=#d79b00;" vertex="1" parent="1">
          <mxGeometry x="456.25" y="265" width="150" height="110" as="geometry" />
        </mxCell>
        <mxCell id="gCLjXgu428mkZAsLbG3j-30" value="" style="rounded=0;whiteSpace=wrap;html=1;fillColor=#fff2cc;strokeColor=#d6b656;" vertex="1" parent="1">
          <mxGeometry x="566" y="440" width="140" height="200" as="geometry" />
        </mxCell>
        <mxCell id="gCLjXgu428mkZAsLbG3j-31" value="&lt;div&gt;pylint&lt;/div&gt;&lt;div&gt;pytest&lt;br&gt;&lt;/div&gt;" style="rounded=0;whiteSpace=wrap;html=1;fillColor=#dae8fc;strokeColor=#6c8ebf;" vertex="1" parent="1">
          <mxGeometry x="589.75" y="470" width="92.5" height="50" as="geometry" />
        </mxCell>
        <mxCell id="gCLjXgu428mkZAsLbG3j-32" value="&lt;div&gt;tslint&lt;br&gt;&lt;/div&gt;&lt;div&gt;jest&lt;br&gt;&lt;/div&gt;" style="rounded=0;whiteSpace=wrap;html=1;fillColor=#dae8fc;strokeColor=#6c8ebf;" vertex="1" parent="1">
          <mxGeometry x="589.75" y="550" width="92.5" height="50" as="geometry" />
        </mxCell>
        <mxCell id="gCLjXgu428mkZAsLbG3j-33" value="&lt;b&gt;Test&lt;/b&gt;" style="text;html=1;strokeColor=none;fillColor=none;align=center;verticalAlign=middle;whiteSpace=wrap;rounded=0;" vertex="1" parent="1">
          <mxGeometry x="566" y="440" width="40" height="20" as="geometry" />
        </mxCell>
        <mxCell id="gCLjXgu428mkZAsLbG3j-34" value="" style="endArrow=none;dashed=1;html=1;" edge="1" parent="1">
          <mxGeometry width="50" height="50" relative="1" as="geometry">
            <mxPoint x="30" y="400" as="sourcePoint" />
            <mxPoint x="830" y="400" as="targetPoint" />
          </mxGeometry>
        </mxCell>
        <mxCell id="gCLjXgu428mkZAsLbG3j-35" value="" style="rounded=0;whiteSpace=wrap;html=1;fillColor=#e1d5e7;strokeColor=#9673a6;" vertex="1" parent="1">
          <mxGeometry x="386" y="440" width="140" height="200" as="geometry" />
        </mxCell>
        <mxCell id="gCLjXgu428mkZAsLbG3j-36" value="&lt;b&gt;Build&lt;/b&gt;" style="text;html=1;strokeColor=none;fillColor=none;align=center;verticalAlign=middle;whiteSpace=wrap;rounded=0;" vertex="1" parent="1">
          <mxGeometry x="386" y="440" width="40" height="20" as="geometry" />
        </mxCell>
        <mxCell id="gCLjXgu428mkZAsLbG3j-37" value="&lt;div&gt;Docker build&lt;br&gt;&lt;/div&gt;" style="rounded=0;whiteSpace=wrap;html=1;fillColor=#dae8fc;strokeColor=#6c8ebf;" vertex="1" parent="1">
          <mxGeometry x="409.75" y="470" width="92.5" height="50" as="geometry" />
        </mxCell>
        <mxCell id="gCLjXgu428mkZAsLbG3j-39" value="" style="rounded=0;whiteSpace=wrap;html=1;fillColor=#d5e8d4;strokeColor=#82b366;" vertex="1" parent="1">
          <mxGeometry x="206" y="440" width="140" height="200" as="geometry" />
        </mxCell>
        <mxCell id="gCLjXgu428mkZAsLbG3j-40" value="&lt;b&gt;Delivery&lt;/b&gt;" style="text;html=1;strokeColor=none;fillColor=none;align=center;verticalAlign=middle;whiteSpace=wrap;rounded=0;" vertex="1" parent="1">
          <mxGeometry x="220" y="440" width="40" height="20" as="geometry" />
        </mxCell>
        <mxCell id="gCLjXgu428mkZAsLbG3j-49" value="" style="pointerEvents=1;shadow=0;dashed=0;html=1;strokeColor=none;labelPosition=center;verticalLabelPosition=bottom;verticalAlign=top;align=center;fillColor=#505050;shape=mxgraph.mscae.intune.device_group" vertex="1" parent="1">
          <mxGeometry x="676" y="610" width="30" height="30" as="geometry" />
        </mxCell>
        <mxCell id="gCLjXgu428mkZAsLbG3j-51" value="" style="pointerEvents=1;shadow=0;dashed=0;html=1;strokeColor=none;labelPosition=center;verticalLabelPosition=bottom;verticalAlign=top;align=center;fillColor=#505050;shape=mxgraph.mscae.intune.groups" vertex="1" parent="1">
          <mxGeometry x="10" y="280" width="50" height="48" as="geometry" />
        </mxCell>
        <mxCell id="gCLjXgu428mkZAsLbG3j-52" value="" style="pointerEvents=1;shadow=0;dashed=0;html=1;strokeColor=none;labelPosition=center;verticalLabelPosition=bottom;verticalAlign=top;align=center;fillColor=#505050;shape=mxgraph.mscae.intune.intune_email_profiles" vertex="1" parent="1">
          <mxGeometry x="576" y="345" width="30" height="30" as="geometry" />
        </mxCell>
        <mxCell id="gCLjXgu428mkZAsLbG3j-53" value="Gitlab" style="ellipse;shape=cloud;whiteSpace=wrap;html=1;fillColor=#FF8000;" vertex="1" parent="1">
          <mxGeometry x="170" y="250" width="120" height="80" as="geometry" />
        </mxCell>
        <mxCell id="gCLjXgu428mkZAsLbG3j-54" value="" style="endArrow=classic;html=1;entryX=0.007;entryY=0.545;entryDx=0;entryDy=0;entryPerimeter=0;" edge="1" parent="1" source="gCLjXgu428mkZAsLbG3j-53" target="gCLjXgu428mkZAsLbG3j-14">
          <mxGeometry width="50" height="50" relative="1" as="geometry">
            <mxPoint x="290" y="220" as="sourcePoint" />
            <mxPoint x="350" y="180" as="targetPoint" />
          </mxGeometry>
        </mxCell>
        <mxCell id="gCLjXgu428mkZAsLbG3j-55" value="" style="endArrow=classic;html=1;entryX=-0.007;entryY=0.55;entryDx=0;entryDy=0;entryPerimeter=0;" edge="1" parent="1" target="gCLjXgu428mkZAsLbG3j-18">
          <mxGeometry width="50" height="50" relative="1" as="geometry">
            <mxPoint x="520" y="130" as="sourcePoint" />
            <mxPoint x="580" y="110" as="targetPoint" />
          </mxGeometry>
        </mxCell>
        <mxCell id="gCLjXgu428mkZAsLbG3j-57" value="" style="endArrow=classic;html=1;exitX=1;exitY=0.5;exitDx=0;exitDy=0;entryX=0;entryY=0.5;entryDx=0;entryDy=0;" edge="1" parent="1" source="gCLjXgu428mkZAsLbG3j-24" target="gCLjXgu428mkZAsLbG3j-11">
          <mxGeometry width="50" height="50" relative="1" as="geometry">
            <mxPoint x="640" y="330" as="sourcePoint" />
            <mxPoint x="690" y="280" as="targetPoint" />
          </mxGeometry>
        </mxCell>
        <mxCell id="gCLjXgu428mkZAsLbG3j-58" value="" style="endArrow=classic;html=1;exitX=1;exitY=0.5;exitDx=0;exitDy=0;entryX=0.567;entryY=-0.083;entryDx=0;entryDy=0;entryPerimeter=0;" edge="1" parent="1" source="gCLjXgu428mkZAsLbG3j-18" target="gCLjXgu428mkZAsLbG3j-11">
          <mxGeometry width="50" height="50" relative="1" as="geometry">
            <mxPoint x="750" y="160" as="sourcePoint" />
            <mxPoint x="800" y="110" as="targetPoint" />
            <Array as="points">
              <mxPoint x="768" y="120" />
            </Array>
          </mxGeometry>
        </mxCell>
        <mxCell id="gCLjXgu428mkZAsLbG3j-59" value="" style="endArrow=classic;html=1;exitX=0;exitY=0.5;exitDx=0;exitDy=0;entryX=1;entryY=0.5;entryDx=0;entryDy=0;" edge="1" parent="1" source="gCLjXgu428mkZAsLbG3j-30" target="gCLjXgu428mkZAsLbG3j-35">
          <mxGeometry width="50" height="50" relative="1" as="geometry">
            <mxPoint x="796" y="620" as="sourcePoint" />
            <mxPoint x="846" y="570" as="targetPoint" />
          </mxGeometry>
        </mxCell>
        <mxCell id="gCLjXgu428mkZAsLbG3j-60" value="" style="endArrow=classic;html=1;exitX=0;exitY=0.5;exitDx=0;exitDy=0;entryX=1;entryY=0.5;entryDx=0;entryDy=0;" edge="1" parent="1" source="gCLjXgu428mkZAsLbG3j-35" target="gCLjXgu428mkZAsLbG3j-39">
          <mxGeometry width="50" height="50" relative="1" as="geometry">
            <mxPoint x="416" y="550" as="sourcePoint" />
            <mxPoint x="466" y="500" as="targetPoint" />
          </mxGeometry>
        </mxCell>
        <mxCell id="gCLjXgu428mkZAsLbG3j-62" value="&lt;div&gt;Docker push&lt;br&gt;&lt;/div&gt;" style="rounded=0;whiteSpace=wrap;html=1;fillColor=#dae8fc;strokeColor=#6c8ebf;" vertex="1" parent="1">
          <mxGeometry x="229.75" y="480" width="92.5" height="50" as="geometry" />
        </mxCell>
        <mxCell id="gCLjXgu428mkZAsLbG3j-64" value="" style="pointerEvents=1;shadow=0;dashed=0;html=1;strokeColor=none;labelPosition=center;verticalLabelPosition=bottom;verticalAlign=top;align=center;fillColor=#505050;shape=mxgraph.mscae.intune.intune_email_profiles" vertex="1" parent="1">
          <mxGeometry x="800" y="330" width="20" height="20" as="geometry" />
        </mxCell>
        <mxCell id="gCLjXgu428mkZAsLbG3j-65" value="" style="rounded=0;whiteSpace=wrap;html=1;fillColor=#f5f5f5;strokeColor=#666666;fontColor=#333333;" vertex="1" parent="1">
          <mxGeometry x="20" y="440" width="140" height="200" as="geometry" />
        </mxCell>
        <mxCell id="gCLjXgu428mkZAsLbG3j-67" value="&lt;b&gt;Deploy&lt;/b&gt;" style="text;html=1;strokeColor=none;fillColor=none;align=center;verticalAlign=middle;whiteSpace=wrap;rounded=0;" vertex="1" parent="1">
          <mxGeometry x="30" y="440" width="40" height="20" as="geometry" />
        </mxCell>
        <mxCell id="gCLjXgu428mkZAsLbG3j-68" value="" style="endArrow=classic;html=1;exitX=0;exitY=0.5;exitDx=0;exitDy=0;entryX=1;entryY=0.5;entryDx=0;entryDy=0;" edge="1" parent="1" source="gCLjXgu428mkZAsLbG3j-39" target="gCLjXgu428mkZAsLbG3j-65">
          <mxGeometry width="50" height="50" relative="1" as="geometry">
            <mxPoint x="190" y="570" as="sourcePoint" />
            <mxPoint x="240" y="520" as="targetPoint" />
          </mxGeometry>
        </mxCell>
        <mxCell id="gCLjXgu428mkZAsLbG3j-69" value="" style="pointerEvents=1;shadow=0;dashed=0;html=1;strokeColor=none;labelPosition=center;verticalLabelPosition=bottom;verticalAlign=top;align=center;fillColor=#505050;shape=mxgraph.mscae.intune.device_group" vertex="1" parent="1">
          <mxGeometry x="496" y="610" width="30" height="30" as="geometry" />
        </mxCell>
        <mxCell id="gCLjXgu428mkZAsLbG3j-70" value="" style="pointerEvents=1;shadow=0;dashed=0;html=1;strokeColor=none;labelPosition=center;verticalLabelPosition=bottom;verticalAlign=top;align=center;fillColor=#505050;shape=mxgraph.mscae.intune.device_group" vertex="1" parent="1">
          <mxGeometry x="316" y="610" width="30" height="30" as="geometry" />
        </mxCell>
        <mxCell id="gCLjXgu428mkZAsLbG3j-71" value="" style="pointerEvents=1;shadow=0;dashed=0;html=1;strokeColor=none;labelPosition=center;verticalLabelPosition=bottom;verticalAlign=top;align=center;fillColor=#505050;shape=mxgraph.mscae.intune.device_group" vertex="1" parent="1">
          <mxGeometry x="670" y="190" width="30" height="30" as="geometry" />
        </mxCell>
        <mxCell id="gCLjXgu428mkZAsLbG3j-72" value="" style="pointerEvents=1;shadow=0;dashed=0;html=1;strokeColor=none;labelPosition=center;verticalLabelPosition=bottom;verticalAlign=top;align=center;fillColor=#505050;shape=mxgraph.mscae.intune.device_group" vertex="1" parent="1">
          <mxGeometry x="486" y="190" width="30" height="30" as="geometry" />
        </mxCell>
      </root>
    </mxGraphModel>
  </diagram>
</mxfile>
